<?xml version="1.0" encoding="UTF-8" standalone="no"?>
<svg
   height="32"
   id="Capa_1"
   version="1.1"
   viewBox="0 0 32 32"
   width="32"
   xml:space="preserve"
   xmlns="http://www.w3.org/2000/svg"
   xmlns:svg="http://www.w3.org/2000/svg"><defs
     id="defs15" /><path
     d="M 15.799619,1.0013631 C 7.5159694,1.1122322 0.89113746,7.9179684 1.0013557,16.201851 1.1122261,24.482148 7.9173854,31.108862 16.200709,30.998645 24.482728,30.887123 31.108864,24.081388 30.998645,15.798157 30.887774,7.517209 24.082289,0.89081997 15.799619,1.0013631 Z m -0.04435,24.1290429 -0.08282,-0.0014 c -1.275662,-0.03782 -2.175016,-0.977605 -2.138821,-2.23434 0.03555,-1.235213 0.956747,-2.131949 2.190343,-2.131949 l 0.07402,0.0014 c 1.311206,0.0388 2.200451,0.969128 2.163603,2.262057 -0.03653,1.2388 -0.943377,2.104232 -2.20632,2.104232 z M 21.12107,14.480771 c -0.300003,0.426194 -0.959682,0.955431 -1.790883,1.603036 l -0.915333,0.631956 c -0.502504,0.39065 -0.805767,0.758148 -0.919573,1.119778 -0.08968,0.284673 -0.133697,0.359998 -0.141522,0.939127 l -0.0014,0.147065 h -3.495026 l 0.01015,-0.29576 c 0.04271,-1.215648 0.07272,-1.930754 0.576526,-2.521621 0.79044,-0.928041 2.53404,-2.050754 2.608062,-2.098362 0.249786,-0.188152 0.460439,-0.40239 0.617288,-0.631303 0.366851,-0.505758 0.529243,-0.903909 0.529243,-1.295212 0,-0.542933 -0.161088,-1.045105 -0.479678,-1.492168 -0.306185,-0.431412 -0.887929,-0.649889 -1.729239,-0.649889 -0.834463,0 -1.405772,0.264781 -1.747513,0.80804 -0.351525,0.558586 -0.529243,1.145214 -0.529243,1.744558 v 0.149022 h -3.603571 l 0.0065,-0.155543 c 0.09293,-2.207274 0.880762,-3.7966164 2.340665,-4.7240044 0.91729,-0.5905413 2.058603,-0.889888 3.390352,-0.889888 1.743274,0 3.214915,0.4235854 4.373511,1.2590171 1.173922,0.8465187 1.769361,2.1143403 1.769361,3.7682463 0,0.925106 -0.292176,1.794124 -0.868703,2.583905 z"
     id="path1"
     style="fill:#fffffe;fill-opacity:1;stroke-width:0.326087" /></svg>
