<?xml version="1.0" encoding="UTF-8" standalone="no"?>
<svg
   width="32"
   height="32"
   viewBox="0 0 32 32"
   fill="none"
   version="1.1"
   id="svg5"
   sodipodi:docname="map-plan.svg"
   inkscape:version="1.3.2 (091e20e, 2023-11-25)"
   xmlns:inkscape="http://www.inkscape.org/namespaces/inkscape"
   xmlns:sodipodi="http://sodipodi.sourceforge.net/DTD/sodipodi-0.dtd"
   xmlns="http://www.w3.org/2000/svg"
   xmlns:svg="http://www.w3.org/2000/svg">
  <sodipodi:namedview
     id="namedview5"
     pagecolor="#505050"
     bordercolor="#ffffff"
     borderopacity="1"
     inkscape:showpageshadow="0"
     inkscape:pageopacity="0"
     inkscape:pagecheckerboard="1"
     inkscape:deskcolor="#505050"
     inkscape:zoom="16.83798"
     inkscape:cx="18.143506"
     inkscape:cy="16.391515"
     inkscape:window-width="1920"
     inkscape:window-height="962"
     inkscape:window-x="0"
     inkscape:window-y="27"
     inkscape:window-maximized="1"
     inkscape:current-layer="svg5" />
  <g
     clip-path="url(#clip0_991_4693)"
     id="g5"
     transform="matrix(1.0975625,0,0,1.1538707,-2.2927004,-4.000427)">
    <path
       d="m 16,24.6668 -4,-2 -8,4 V 9.3335 l 8,-4 8,4 8,-4 v 10"
       stroke="#ffffff"
       stroke-width="2"
       stroke-linecap="round"
       stroke-linejoin="round"
       id="path1" />
    <path
       d="M 12,5.3335 V 22.6668"
       stroke="#ffffff"
       stroke-width="2"
       stroke-linecap="round"
       stroke-linejoin="round"
       id="path2" />
    <path
       d="m 20,9.3335 v 7.3333"
       stroke="#ffffff"
       stroke-width="2"
       stroke-linecap="round"
       stroke-linejoin="round"
       id="path3" />
    <path
       d="m 28.1613,26.8279 c 0.5595,-0.5594 0.9406,-1.2721 1.0951,-2.0481 0.1544,-0.7759 0.0753,-1.5803 -0.2275,-2.3112 -0.3027,-0.731 -0.8154,-1.3558 -1.4732,-1.7954 -0.6578,-0.4395 -1.4312,-0.6742 -2.2224,-0.6742 -0.7912,0 -1.5646,0.2347 -2.2224,0.6742 -0.6578,0.4396 -1.1705,1.0644 -1.4732,1.7954 -0.3027,0.7309 -0.3819,1.5353 -0.2274,2.3112 0.1544,0.776 0.5355,1.4887 1.095,2.0481 0.5573,0.5586 1.5,1.3933 2.828,2.5053 1.4013,-1.1867 2.3453,-2.0213 2.828,-2.5053 z"
       stroke="#ffffff"
       stroke-width="2"
       stroke-linecap="round"
       stroke-linejoin="round"
       id="path4" />
    <path
       d="m 25.3333,24 v 0.0133"
       stroke="#ffffff"
       stroke-width="2"
       stroke-linecap="round"
       stroke-linejoin="round"
       id="path5" />
  </g>
  <defs
     id="defs5">
    <clipPath
       id="clip0_991_4693">
      <rect
         width="32"
         height="32"
         fill="white"
         id="rect5" />
    </clipPath>
  </defs>
</svg>
